<!--
# -*- coding: utf-8 -*-
# Copyright (C) 2024 HRForce
#
# All rights reserved.
# @link hrforce.ai
#
-->
<svg width="13" height="12" viewBox="0 0 13 12" fill="none" xmlns="http://www.w3.org/2000/svg">
<path d="M6.5 0C9.81371 0 12.5 2.68629 12.5 6C12.5 9.31371 9.81371 12 6.5 12C3.18629 12 0.5 9.31371 0.5 6C0.5 2.68629 3.18629 0 6.5 0ZM8.62028 4.16398L5.74953 7.04242L4.35355 5.64645C4.15829 5.45118 3.84171 5.45118 3.64645 5.64645C3.45118 5.84171 3.45118 6.15829 3.64645 6.35355L5.39645 8.10355C5.59189 8.299 5.90884 8.29879 6.10403 8.10308L9.32833 4.87014C9.52333 4.67462 9.52291 4.35804 9.32738 4.16304C9.13186 3.96803 8.81528 3.96846 8.62028 4.16398Z" fill="#059669"/>
</svg>
