<!--
# -*- coding: utf-8 -*-
# Copyright (C) 2024 HRForce
#
# All rights reserved.
# @link hrforce.ai
#
-->
<svg width="12" height="12" viewBox="0 0 12 12" fill="none" xmlns="http://www.w3.org/2000/svg">
<g clip-path="url(#clip0_4972_12983)">
<path fill-rule="evenodd" clip-rule="evenodd" d="M0.625 6C0.625 8.96853 3.03147 11.375 6 11.375C8.96853 11.375 11.375 8.96853 11.375 6C11.375 3.03147 8.96853 0.625 6 0.625C3.03147 0.625 0.625 3.03147 0.625 6ZM5.84094 5.51363C5.96446 5.53024 6.13533 5.57469 6.28033 5.71969C6.42533 5.86468 6.46978 6.03555 6.48639 6.15908C6.50015 6.2614 6.50007 6.38039 6.50001 6.48032L6.5 6.50002V8.50002C6.5 8.77616 6.27614 9.00002 6 9.00002C5.72386 9.00002 5.5 8.77616 5.5 8.50002V6.50002C5.22386 6.50002 5 6.27616 5 6.00002C5 5.72387 5.22386 5.50002 5.5 5.50002L5.51969 5.50001C5.61963 5.49995 5.73861 5.49987 5.84094 5.51363ZM5.99772 3.5C5.72281 3.5 5.49996 3.72386 5.49996 4C5.49996 4.27614 5.72281 4.5 5.99772 4.5H6.00219C6.2771 4.5 6.49996 4.27614 6.49996 4C6.49996 3.72386 6.2771 3.5 6.00219 3.5H5.99772Z" fill="#1570EF"/>
</g>
<defs>
<clipPath id="clip0_4972_12983">
<rect width="12" height="12" fill="white"/>
</clipPath>
</defs>
</svg>
