<!--
# -*- coding: utf-8 -*-
# Copyright (C) 2024 HRForce
#
# All rights reserved.
# @link hrforce.ai
#
-->
<svg width="12" height="12" viewBox="0 0 12 12" fill="none" xmlns="http://www.w3.org/2000/svg">
<g clip-path="url(#clip0_4972_12980)">
<path fill-rule="evenodd" clip-rule="evenodd" d="M0.625 6C0.625 3.03147 3.03147 0.625 6 0.625C8.96853 0.625 11.375 3.03147 11.375 6C11.375 8.96853 8.96853 11.375 6 11.375C3.03147 11.375 0.625 8.96853 0.625 6ZM6 4.25C5.72386 4.25 5.5 4.47386 5.5 4.75C5.5 5.02614 5.27614 5.25 5 5.25C4.72386 5.25 4.5 5.02614 4.5 4.75C4.5 3.92157 5.17157 3.25 6 3.25C6.82843 3.25 7.5 3.92157 7.5 4.75C7.5 5.04787 7.41266 5.32686 7.26203 5.56096C7.17165 5.70141 7.06685 5.83421 6.97354 5.95018L6.92245 6.0135C6.84522 6.1091 6.77659 6.19405 6.71301 6.28143C6.55497 6.49864 6.5 6.63851 6.5 6.75C6.5 7.02614 6.27614 7.25 6 7.25C5.72386 7.25 5.5 7.02614 5.5 6.75C5.5 6.3092 5.71638 5.95149 5.9044 5.69308C5.98433 5.58324 6.07207 5.47472 6.14963 5.37878L6.19443 5.32328C6.28693 5.20833 6.36204 5.1116 6.42108 5.01983C6.47099 4.94227 6.5 4.85028 6.5 4.75C6.5 4.47386 6.27614 4.25 6 4.25ZM5.99776 7.75C5.72286 7.75 5.5 7.97386 5.5 8.25C5.5 8.52614 5.72286 8.75 5.99776 8.75H6.00224C6.27714 8.75 6.5 8.52614 6.5 8.25C6.5 7.97386 6.27714 7.75 6.00224 7.75H5.99776Z" fill="#DC2626"/>
</g>
<defs>
<clipPath id="clip0_4972_12980">
<rect width="12" height="12" fill="white"/>
</clipPath>
</defs>
</svg>
