<!--
# -*- coding: utf-8 -*-
# Copyright (C) 2024 HRForce
#
# All rights reserved.
# @link hrforce.ai
#
-->
<svg width="12" height="12" viewBox="0 0 12 12" fill="none" xmlns="http://www.w3.org/2000/svg">
<g clip-path="url(#clip0_4972_12986)">
<path fill-rule="evenodd" clip-rule="evenodd" d="M5.18099 1.0075C5.71322 0.830833 6.28678 0.830833 6.81901 1.0075C7.34904 1.18344 7.76519 1.60071 8.18327 2.18697C8.59997 2.7713 9.0604 3.58603 9.65391 4.63625L9.67722 4.67748C10.2708 5.72786 10.7312 6.54255 11.0182 7.20324C11.3065 7.86714 11.4501 8.44037 11.3355 8.99106C11.2202 9.54553 10.9357 10.0497 10.5214 10.4308C10.1081 10.811 9.54537 10.9714 8.83679 11.0484C8.13223 11.125 7.2106 11.125 6.02438 11.125H5.97563C4.78941 11.125 3.86777 11.125 3.16321 11.0484C2.45463 10.9714 1.89189 10.811 1.47861 10.4308C1.06431 10.0497 0.77984 9.54553 0.664476 8.99106C0.549899 8.44037 0.6935 7.86714 0.981827 7.20324C1.26876 6.54255 1.72918 5.72786 2.32279 4.67748L2.34609 4.63625L2.34609 4.63624C2.93961 3.58603 3.40004 2.7713 3.81673 2.18697C4.23481 1.60071 4.65097 1.18344 5.18099 1.0075ZM5.5 8.5C5.5 8.22386 5.72286 8 5.99776 8H6.00224C6.27714 8 6.5 8.22386 6.5 8.5C6.5 8.77614 6.27714 9 6.00224 9H5.99776C5.72286 9 5.5 8.77614 5.5 8.5ZM5.5 6.5C5.5 6.77614 5.72386 7 6 7C6.27614 7 6.5 6.77614 6.5 6.5V4.5C6.5 4.22386 6.27614 4 6 4C5.72386 4 5.5 4.22386 5.5 4.5V6.5Z" fill="#DC6803"/>
</g>
<defs>
<clipPath id="clip0_4972_12986">
<rect width="12" height="12" fill="white"/>
</clipPath>
</defs>
</svg>
